<svg width="55" height="56" viewBox="0 0 55 56" fill="none" xmlns="http://www.w3.org/2000/svg">
<g clip-path="url(#clip0_2_60)">
<rect width="55" height="56" rx="8" fill="#2D64BC"/>
<path opacity="0.12" d="M10.855 50H11.275C34.525 50 49 33.305 49 12.485C48.58 -8.8 34.525 -25 11.71 -25C-11.075 -25 -26 -8.8 -26 12.485C-26 33.32 -11.525 50 10.855 50Z" fill="white"/>
<path opacity="0.12" d="M11.113 35H11.365C25.315 35 34 24.983 34 12.491C33.748 -0.280005 25.315 -10 11.626 -10C-2.045 -10 -11 -0.280005 -11 12.491C-11 24.992 -2.315 35 11.113 35Z" fill="white"/>
<path d="M11.4226 17H11.473C14.263 17 16 14.9966 16 12.4982C15.9496 9.944 14.263 8 11.5252 8C8.791 8 7 9.944 7 12.4982C7 14.9984 8.737 17 11.4226 17Z" fill="white"/>
</g>
<defs>
<clipPath id="clip0_2_60">
<rect width="55" height="56" rx="8" fill="white"/>
</clipPath>
</defs>
</svg>
