<svg width="24" height="24" viewBox="0 0 24 24" fill="none" xmlns="http://www.w3.org/2000/svg">
<g clip-path="url(#clip0_73_6722)">
<rect width="24" height="24" rx="5" fill="black"/>
<path opacity="0.12" d="M4.75181 20.5711H4.9253C14.5297 20.5711 20.5092 13.7977 20.5092 5.35078C20.3357 -3.28485 14.5297 -9.85742 5.105 -9.85742C-4.30728 -9.85742 -10.4727 -3.28485 -10.4727 5.35078C-10.4727 13.8038 -4.49317 20.5711 4.75181 20.5711Z" fill="white"/>
<path opacity="0.12" d="M4.88685 12.8574H4.97238C9.70693 12.8574 12.6546 9.51842 12.6546 5.35442C12.569 1.09742 9.70693 -2.14258 5.06096 -2.14258C0.421108 -2.14258 -2.61816 1.09742 -2.61816 5.35442C-2.61816 9.52142 0.329471 12.8574 4.88685 12.8574Z" fill="white"/>
<path d="M4.9843 7.28585H5.0063C6.22375 7.28585 6.98172 6.42725 6.98172 5.35651C6.95972 4.26185 6.22375 3.42871 5.02908 3.42871C3.83597 3.42871 3.05444 4.26185 3.05444 5.35651C3.05444 6.42803 3.81241 7.28585 4.9843 7.28585Z" fill="white"/>
</g>
<defs>
<clipPath id="clip0_73_6722">
<rect width="24" height="24" rx="5" fill="white"/>
</clipPath>
</defs>
</svg>
